<mxfile host="Electron" agent="Mozilla/5.0 (Windows NT 10.0; Win64; x64) AppleWebKit/537.36 (KHTML, like Gecko) draw.io/26.0.9 Chrome/128.0.6613.186 Electron/32.2.5 Safari/537.36" version="26.0.9">
  <diagram name="Page-1" id="-qXoSg-ol1i03xwowYgb">
    <mxGraphModel dx="2074" dy="1244" grid="1" gridSize="10" guides="1" tooltips="1" connect="1" arrows="1" fold="1" page="1" pageScale="1" pageWidth="1920" pageHeight="1200" math="0" shadow="0">
      <root>
        <mxCell id="0" />
        <mxCell id="1" parent="0" />
        <mxCell id="7Hdt9QNtO5WBBUhMQVxc-1" value="gold.dim_customers" style="shape=table;startSize=40;container=1;collapsible=1;childLayout=tableLayout;fixedRows=1;rowLines=0;fontStyle=1;align=center;resizeLast=1;html=1;rounded=1;fillColor=#fff2cc;strokeColor=#d6b656;fontSize=16;" parent="1" vertex="1">
          <mxGeometry x="410" y="300" width="230" height="553" as="geometry" />
        </mxCell>
        <mxCell id="7Hdt9QNtO5WBBUhMQVxc-2" value="" style="shape=tableRow;horizontal=0;startSize=0;swimlaneHead=0;swimlaneBody=0;fillColor=none;collapsible=0;dropTarget=0;points=[[0,0.5],[1,0.5]];portConstraint=eastwest;top=0;left=0;right=0;bottom=1;fontSize=16;fontStyle=1" parent="7Hdt9QNtO5WBBUhMQVxc-1" vertex="1">
          <mxGeometry y="40" width="230" height="57" as="geometry" />
        </mxCell>
        <mxCell id="7Hdt9QNtO5WBBUhMQVxc-3" value="PK" style="shape=partialRectangle;connectable=0;fillColor=none;top=0;left=0;bottom=0;right=0;fontStyle=1;overflow=hidden;whiteSpace=wrap;html=1;fontSize=16;" parent="7Hdt9QNtO5WBBUhMQVxc-2" vertex="1">
          <mxGeometry width="30" height="57" as="geometry">
            <mxRectangle width="30" height="57" as="alternateBounds" />
          </mxGeometry>
        </mxCell>
        <mxCell id="7Hdt9QNtO5WBBUhMQVxc-4" value="customer_key" style="shape=partialRectangle;connectable=0;fillColor=none;top=0;left=0;bottom=0;right=0;align=left;spacingLeft=6;fontStyle=5;overflow=hidden;whiteSpace=wrap;html=1;fontSize=16;" parent="7Hdt9QNtO5WBBUhMQVxc-2" vertex="1">
          <mxGeometry x="30" width="200" height="57" as="geometry">
            <mxRectangle width="200" height="57" as="alternateBounds" />
          </mxGeometry>
        </mxCell>
        <mxCell id="7Hdt9QNtO5WBBUhMQVxc-5" value="" style="shape=tableRow;horizontal=0;startSize=0;swimlaneHead=0;swimlaneBody=0;fillColor=none;collapsible=0;dropTarget=0;points=[[0,0.5],[1,0.5]];portConstraint=eastwest;top=0;left=0;right=0;bottom=0;fontSize=16;fontStyle=1" parent="7Hdt9QNtO5WBBUhMQVxc-1" vertex="1">
          <mxGeometry y="97" width="230" height="57" as="geometry" />
        </mxCell>
        <mxCell id="7Hdt9QNtO5WBBUhMQVxc-6" value="" style="shape=partialRectangle;connectable=0;fillColor=none;top=0;left=0;bottom=0;right=0;editable=1;overflow=hidden;whiteSpace=wrap;html=1;fontSize=16;fontStyle=1" parent="7Hdt9QNtO5WBBUhMQVxc-5" vertex="1">
          <mxGeometry width="30" height="57" as="geometry">
            <mxRectangle width="30" height="57" as="alternateBounds" />
          </mxGeometry>
        </mxCell>
        <mxCell id="7Hdt9QNtO5WBBUhMQVxc-7" value="customer_id" style="shape=partialRectangle;connectable=0;fillColor=none;top=0;left=0;bottom=0;right=0;align=left;spacingLeft=6;overflow=hidden;whiteSpace=wrap;html=1;fontSize=16;fontStyle=1" parent="7Hdt9QNtO5WBBUhMQVxc-5" vertex="1">
          <mxGeometry x="30" width="200" height="57" as="geometry">
            <mxRectangle width="200" height="57" as="alternateBounds" />
          </mxGeometry>
        </mxCell>
        <mxCell id="7Hdt9QNtO5WBBUhMQVxc-8" value="" style="shape=tableRow;horizontal=0;startSize=0;swimlaneHead=0;swimlaneBody=0;fillColor=none;collapsible=0;dropTarget=0;points=[[0,0.5],[1,0.5]];portConstraint=eastwest;top=0;left=0;right=0;bottom=0;fontSize=16;fontStyle=1" parent="7Hdt9QNtO5WBBUhMQVxc-1" vertex="1">
          <mxGeometry y="154" width="230" height="57" as="geometry" />
        </mxCell>
        <mxCell id="7Hdt9QNtO5WBBUhMQVxc-9" value="" style="shape=partialRectangle;connectable=0;fillColor=none;top=0;left=0;bottom=0;right=0;editable=1;overflow=hidden;whiteSpace=wrap;html=1;fontSize=16;fontStyle=1" parent="7Hdt9QNtO5WBBUhMQVxc-8" vertex="1">
          <mxGeometry width="30" height="57" as="geometry">
            <mxRectangle width="30" height="57" as="alternateBounds" />
          </mxGeometry>
        </mxCell>
        <mxCell id="7Hdt9QNtO5WBBUhMQVxc-10" value="customer_number" style="shape=partialRectangle;connectable=0;fillColor=none;top=0;left=0;bottom=0;right=0;align=left;spacingLeft=6;overflow=hidden;whiteSpace=wrap;html=1;fontSize=16;fontStyle=1" parent="7Hdt9QNtO5WBBUhMQVxc-8" vertex="1">
          <mxGeometry x="30" width="200" height="57" as="geometry">
            <mxRectangle width="200" height="57" as="alternateBounds" />
          </mxGeometry>
        </mxCell>
        <mxCell id="7Hdt9QNtO5WBBUhMQVxc-11" value="" style="shape=tableRow;horizontal=0;startSize=0;swimlaneHead=0;swimlaneBody=0;fillColor=none;collapsible=0;dropTarget=0;points=[[0,0.5],[1,0.5]];portConstraint=eastwest;top=0;left=0;right=0;bottom=0;fontSize=16;fontStyle=1" parent="7Hdt9QNtO5WBBUhMQVxc-1" vertex="1">
          <mxGeometry y="211" width="230" height="57" as="geometry" />
        </mxCell>
        <mxCell id="7Hdt9QNtO5WBBUhMQVxc-12" value="" style="shape=partialRectangle;connectable=0;fillColor=none;top=0;left=0;bottom=0;right=0;editable=1;overflow=hidden;whiteSpace=wrap;html=1;fontSize=16;fontStyle=1" parent="7Hdt9QNtO5WBBUhMQVxc-11" vertex="1">
          <mxGeometry width="30" height="57" as="geometry">
            <mxRectangle width="30" height="57" as="alternateBounds" />
          </mxGeometry>
        </mxCell>
        <mxCell id="7Hdt9QNtO5WBBUhMQVxc-13" value="first_name" style="shape=partialRectangle;connectable=0;fillColor=none;top=0;left=0;bottom=0;right=0;align=left;spacingLeft=6;overflow=hidden;whiteSpace=wrap;html=1;fontSize=16;fontStyle=1" parent="7Hdt9QNtO5WBBUhMQVxc-11" vertex="1">
          <mxGeometry x="30" width="200" height="57" as="geometry">
            <mxRectangle width="200" height="57" as="alternateBounds" />
          </mxGeometry>
        </mxCell>
        <mxCell id="7Hdt9QNtO5WBBUhMQVxc-15" value="" style="shape=tableRow;horizontal=0;startSize=0;swimlaneHead=0;swimlaneBody=0;fillColor=none;collapsible=0;dropTarget=0;points=[[0,0.5],[1,0.5]];portConstraint=eastwest;top=0;left=0;right=0;bottom=0;fontSize=16;fontStyle=1" parent="7Hdt9QNtO5WBBUhMQVxc-1" vertex="1">
          <mxGeometry y="268" width="230" height="57" as="geometry" />
        </mxCell>
        <mxCell id="7Hdt9QNtO5WBBUhMQVxc-16" value="" style="shape=partialRectangle;connectable=0;fillColor=none;top=0;left=0;bottom=0;right=0;editable=1;overflow=hidden;whiteSpace=wrap;html=1;fontSize=16;fontStyle=1" parent="7Hdt9QNtO5WBBUhMQVxc-15" vertex="1">
          <mxGeometry width="30" height="57" as="geometry">
            <mxRectangle width="30" height="57" as="alternateBounds" />
          </mxGeometry>
        </mxCell>
        <mxCell id="7Hdt9QNtO5WBBUhMQVxc-17" value="last_name" style="shape=partialRectangle;connectable=0;fillColor=none;top=0;left=0;bottom=0;right=0;align=left;spacingLeft=6;overflow=hidden;whiteSpace=wrap;html=1;fontSize=16;fontStyle=1" parent="7Hdt9QNtO5WBBUhMQVxc-15" vertex="1">
          <mxGeometry x="30" width="200" height="57" as="geometry">
            <mxRectangle width="200" height="57" as="alternateBounds" />
          </mxGeometry>
        </mxCell>
        <mxCell id="7Hdt9QNtO5WBBUhMQVxc-18" value="" style="shape=tableRow;horizontal=0;startSize=0;swimlaneHead=0;swimlaneBody=0;fillColor=none;collapsible=0;dropTarget=0;points=[[0,0.5],[1,0.5]];portConstraint=eastwest;top=0;left=0;right=0;bottom=0;fontSize=16;fontStyle=1" parent="7Hdt9QNtO5WBBUhMQVxc-1" vertex="1">
          <mxGeometry y="325" width="230" height="57" as="geometry" />
        </mxCell>
        <mxCell id="7Hdt9QNtO5WBBUhMQVxc-19" value="" style="shape=partialRectangle;connectable=0;fillColor=none;top=0;left=0;bottom=0;right=0;editable=1;overflow=hidden;whiteSpace=wrap;html=1;fontSize=16;fontStyle=1" parent="7Hdt9QNtO5WBBUhMQVxc-18" vertex="1">
          <mxGeometry width="30" height="57" as="geometry">
            <mxRectangle width="30" height="57" as="alternateBounds" />
          </mxGeometry>
        </mxCell>
        <mxCell id="7Hdt9QNtO5WBBUhMQVxc-20" value="country" style="shape=partialRectangle;connectable=0;fillColor=none;top=0;left=0;bottom=0;right=0;align=left;spacingLeft=6;overflow=hidden;whiteSpace=wrap;html=1;fontSize=16;fontStyle=1" parent="7Hdt9QNtO5WBBUhMQVxc-18" vertex="1">
          <mxGeometry x="30" width="200" height="57" as="geometry">
            <mxRectangle width="200" height="57" as="alternateBounds" />
          </mxGeometry>
        </mxCell>
        <mxCell id="7Hdt9QNtO5WBBUhMQVxc-21" value="" style="shape=tableRow;horizontal=0;startSize=0;swimlaneHead=0;swimlaneBody=0;fillColor=none;collapsible=0;dropTarget=0;points=[[0,0.5],[1,0.5]];portConstraint=eastwest;top=0;left=0;right=0;bottom=0;fontSize=16;fontStyle=1" parent="7Hdt9QNtO5WBBUhMQVxc-1" vertex="1">
          <mxGeometry y="382" width="230" height="57" as="geometry" />
        </mxCell>
        <mxCell id="7Hdt9QNtO5WBBUhMQVxc-22" value="" style="shape=partialRectangle;connectable=0;fillColor=none;top=0;left=0;bottom=0;right=0;editable=1;overflow=hidden;whiteSpace=wrap;html=1;fontSize=16;fontStyle=1" parent="7Hdt9QNtO5WBBUhMQVxc-21" vertex="1">
          <mxGeometry width="30" height="57" as="geometry">
            <mxRectangle width="30" height="57" as="alternateBounds" />
          </mxGeometry>
        </mxCell>
        <mxCell id="7Hdt9QNtO5WBBUhMQVxc-23" value="marital_status" style="shape=partialRectangle;connectable=0;fillColor=none;top=0;left=0;bottom=0;right=0;align=left;spacingLeft=6;overflow=hidden;whiteSpace=wrap;html=1;fontSize=16;fontStyle=1" parent="7Hdt9QNtO5WBBUhMQVxc-21" vertex="1">
          <mxGeometry x="30" width="200" height="57" as="geometry">
            <mxRectangle width="200" height="57" as="alternateBounds" />
          </mxGeometry>
        </mxCell>
        <mxCell id="7Hdt9QNtO5WBBUhMQVxc-24" value="" style="shape=tableRow;horizontal=0;startSize=0;swimlaneHead=0;swimlaneBody=0;fillColor=none;collapsible=0;dropTarget=0;points=[[0,0.5],[1,0.5]];portConstraint=eastwest;top=0;left=0;right=0;bottom=0;fontSize=16;fontStyle=1" parent="7Hdt9QNtO5WBBUhMQVxc-1" vertex="1">
          <mxGeometry y="439" width="230" height="57" as="geometry" />
        </mxCell>
        <mxCell id="7Hdt9QNtO5WBBUhMQVxc-25" value="" style="shape=partialRectangle;connectable=0;fillColor=none;top=0;left=0;bottom=0;right=0;editable=1;overflow=hidden;whiteSpace=wrap;html=1;fontSize=16;fontStyle=1" parent="7Hdt9QNtO5WBBUhMQVxc-24" vertex="1">
          <mxGeometry width="30" height="57" as="geometry">
            <mxRectangle width="30" height="57" as="alternateBounds" />
          </mxGeometry>
        </mxCell>
        <mxCell id="7Hdt9QNtO5WBBUhMQVxc-26" value="gender" style="shape=partialRectangle;connectable=0;fillColor=none;top=0;left=0;bottom=0;right=0;align=left;spacingLeft=6;overflow=hidden;whiteSpace=wrap;html=1;fontSize=16;fontStyle=1" parent="7Hdt9QNtO5WBBUhMQVxc-24" vertex="1">
          <mxGeometry x="30" width="200" height="57" as="geometry">
            <mxRectangle width="200" height="57" as="alternateBounds" />
          </mxGeometry>
        </mxCell>
        <mxCell id="7Hdt9QNtO5WBBUhMQVxc-27" value="" style="shape=tableRow;horizontal=0;startSize=0;swimlaneHead=0;swimlaneBody=0;fillColor=none;collapsible=0;dropTarget=0;points=[[0,0.5],[1,0.5]];portConstraint=eastwest;top=0;left=0;right=0;bottom=0;fontSize=16;fontStyle=1" parent="7Hdt9QNtO5WBBUhMQVxc-1" vertex="1">
          <mxGeometry y="496" width="230" height="57" as="geometry" />
        </mxCell>
        <mxCell id="7Hdt9QNtO5WBBUhMQVxc-28" value="" style="shape=partialRectangle;connectable=0;fillColor=none;top=0;left=0;bottom=0;right=0;editable=1;overflow=hidden;whiteSpace=wrap;html=1;fontSize=16;fontStyle=1" parent="7Hdt9QNtO5WBBUhMQVxc-27" vertex="1">
          <mxGeometry width="30" height="57" as="geometry">
            <mxRectangle width="30" height="57" as="alternateBounds" />
          </mxGeometry>
        </mxCell>
        <mxCell id="7Hdt9QNtO5WBBUhMQVxc-29" value="birthdate" style="shape=partialRectangle;connectable=0;fillColor=none;top=0;left=0;bottom=0;right=0;align=left;spacingLeft=6;overflow=hidden;whiteSpace=wrap;html=1;fontSize=16;fontStyle=1" parent="7Hdt9QNtO5WBBUhMQVxc-27" vertex="1">
          <mxGeometry x="30" width="200" height="57" as="geometry">
            <mxRectangle width="200" height="57" as="alternateBounds" />
          </mxGeometry>
        </mxCell>
        <mxCell id="7Hdt9QNtO5WBBUhMQVxc-14" value="&lt;font style=&quot;font-size: 25px;&quot;&gt;&lt;b&gt;DATA Model&amp;nbsp;&lt;/b&gt;(start Schema)&lt;/font&gt;" style="text;html=1;align=center;verticalAlign=middle;whiteSpace=wrap;rounded=0;" parent="1" vertex="1">
          <mxGeometry x="50" y="40" width="370" height="30" as="geometry" />
        </mxCell>
        <mxCell id="7Hdt9QNtO5WBBUhMQVxc-61" value="gold.dim_products" style="shape=table;startSize=40;container=1;collapsible=1;childLayout=tableLayout;fixedRows=1;rowLines=0;fontStyle=1;align=center;resizeLast=1;html=1;rounded=1;fillColor=#fff2cc;strokeColor=#d6b656;fontSize=16;" parent="1" vertex="1">
          <mxGeometry x="1200" y="300" width="230" height="667" as="geometry" />
        </mxCell>
        <mxCell id="7Hdt9QNtO5WBBUhMQVxc-62" value="" style="shape=tableRow;horizontal=0;startSize=0;swimlaneHead=0;swimlaneBody=0;fillColor=none;collapsible=0;dropTarget=0;points=[[0,0.5],[1,0.5]];portConstraint=eastwest;top=0;left=0;right=0;bottom=1;fontSize=16;fontStyle=1" parent="7Hdt9QNtO5WBBUhMQVxc-61" vertex="1">
          <mxGeometry y="40" width="230" height="57" as="geometry" />
        </mxCell>
        <mxCell id="7Hdt9QNtO5WBBUhMQVxc-63" value="PK" style="shape=partialRectangle;connectable=0;fillColor=none;top=0;left=0;bottom=0;right=0;fontStyle=1;overflow=hidden;whiteSpace=wrap;html=1;fontSize=16;" parent="7Hdt9QNtO5WBBUhMQVxc-62" vertex="1">
          <mxGeometry width="30" height="57" as="geometry">
            <mxRectangle width="30" height="57" as="alternateBounds" />
          </mxGeometry>
        </mxCell>
        <mxCell id="7Hdt9QNtO5WBBUhMQVxc-64" value="product_key" style="shape=partialRectangle;connectable=0;fillColor=none;top=0;left=0;bottom=0;right=0;align=left;spacingLeft=6;fontStyle=5;overflow=hidden;whiteSpace=wrap;html=1;fontSize=16;" parent="7Hdt9QNtO5WBBUhMQVxc-62" vertex="1">
          <mxGeometry x="30" width="200" height="57" as="geometry">
            <mxRectangle width="200" height="57" as="alternateBounds" />
          </mxGeometry>
        </mxCell>
        <mxCell id="7Hdt9QNtO5WBBUhMQVxc-65" value="" style="shape=tableRow;horizontal=0;startSize=0;swimlaneHead=0;swimlaneBody=0;fillColor=none;collapsible=0;dropTarget=0;points=[[0,0.5],[1,0.5]];portConstraint=eastwest;top=0;left=0;right=0;bottom=0;fontSize=16;fontStyle=1" parent="7Hdt9QNtO5WBBUhMQVxc-61" vertex="1">
          <mxGeometry y="97" width="230" height="57" as="geometry" />
        </mxCell>
        <mxCell id="7Hdt9QNtO5WBBUhMQVxc-66" value="" style="shape=partialRectangle;connectable=0;fillColor=none;top=0;left=0;bottom=0;right=0;editable=1;overflow=hidden;whiteSpace=wrap;html=1;fontSize=16;fontStyle=1" parent="7Hdt9QNtO5WBBUhMQVxc-65" vertex="1">
          <mxGeometry width="30" height="57" as="geometry">
            <mxRectangle width="30" height="57" as="alternateBounds" />
          </mxGeometry>
        </mxCell>
        <mxCell id="7Hdt9QNtO5WBBUhMQVxc-67" value="product_id" style="shape=partialRectangle;connectable=0;fillColor=none;top=0;left=0;bottom=0;right=0;align=left;spacingLeft=6;overflow=hidden;whiteSpace=wrap;html=1;fontSize=16;fontStyle=1" parent="7Hdt9QNtO5WBBUhMQVxc-65" vertex="1">
          <mxGeometry x="30" width="200" height="57" as="geometry">
            <mxRectangle width="200" height="57" as="alternateBounds" />
          </mxGeometry>
        </mxCell>
        <mxCell id="7Hdt9QNtO5WBBUhMQVxc-68" value="" style="shape=tableRow;horizontal=0;startSize=0;swimlaneHead=0;swimlaneBody=0;fillColor=none;collapsible=0;dropTarget=0;points=[[0,0.5],[1,0.5]];portConstraint=eastwest;top=0;left=0;right=0;bottom=0;fontSize=16;fontStyle=1" parent="7Hdt9QNtO5WBBUhMQVxc-61" vertex="1">
          <mxGeometry y="154" width="230" height="57" as="geometry" />
        </mxCell>
        <mxCell id="7Hdt9QNtO5WBBUhMQVxc-69" value="" style="shape=partialRectangle;connectable=0;fillColor=none;top=0;left=0;bottom=0;right=0;editable=1;overflow=hidden;whiteSpace=wrap;html=1;fontSize=16;fontStyle=1" parent="7Hdt9QNtO5WBBUhMQVxc-68" vertex="1">
          <mxGeometry width="30" height="57" as="geometry">
            <mxRectangle width="30" height="57" as="alternateBounds" />
          </mxGeometry>
        </mxCell>
        <mxCell id="7Hdt9QNtO5WBBUhMQVxc-70" value="product_number" style="shape=partialRectangle;connectable=0;fillColor=none;top=0;left=0;bottom=0;right=0;align=left;spacingLeft=6;overflow=hidden;whiteSpace=wrap;html=1;fontSize=16;fontStyle=1" parent="7Hdt9QNtO5WBBUhMQVxc-68" vertex="1">
          <mxGeometry x="30" width="200" height="57" as="geometry">
            <mxRectangle width="200" height="57" as="alternateBounds" />
          </mxGeometry>
        </mxCell>
        <mxCell id="7Hdt9QNtO5WBBUhMQVxc-71" value="" style="shape=tableRow;horizontal=0;startSize=0;swimlaneHead=0;swimlaneBody=0;fillColor=none;collapsible=0;dropTarget=0;points=[[0,0.5],[1,0.5]];portConstraint=eastwest;top=0;left=0;right=0;bottom=0;fontSize=16;fontStyle=1" parent="7Hdt9QNtO5WBBUhMQVxc-61" vertex="1">
          <mxGeometry y="211" width="230" height="57" as="geometry" />
        </mxCell>
        <mxCell id="7Hdt9QNtO5WBBUhMQVxc-72" value="" style="shape=partialRectangle;connectable=0;fillColor=none;top=0;left=0;bottom=0;right=0;editable=1;overflow=hidden;whiteSpace=wrap;html=1;fontSize=16;fontStyle=1" parent="7Hdt9QNtO5WBBUhMQVxc-71" vertex="1">
          <mxGeometry width="30" height="57" as="geometry">
            <mxRectangle width="30" height="57" as="alternateBounds" />
          </mxGeometry>
        </mxCell>
        <mxCell id="7Hdt9QNtO5WBBUhMQVxc-73" value="product_name" style="shape=partialRectangle;connectable=0;fillColor=none;top=0;left=0;bottom=0;right=0;align=left;spacingLeft=6;overflow=hidden;whiteSpace=wrap;html=1;fontSize=16;fontStyle=1" parent="7Hdt9QNtO5WBBUhMQVxc-71" vertex="1">
          <mxGeometry x="30" width="200" height="57" as="geometry">
            <mxRectangle width="200" height="57" as="alternateBounds" />
          </mxGeometry>
        </mxCell>
        <mxCell id="7Hdt9QNtO5WBBUhMQVxc-74" value="" style="shape=tableRow;horizontal=0;startSize=0;swimlaneHead=0;swimlaneBody=0;fillColor=none;collapsible=0;dropTarget=0;points=[[0,0.5],[1,0.5]];portConstraint=eastwest;top=0;left=0;right=0;bottom=0;fontSize=16;fontStyle=1" parent="7Hdt9QNtO5WBBUhMQVxc-61" vertex="1">
          <mxGeometry y="268" width="230" height="57" as="geometry" />
        </mxCell>
        <mxCell id="7Hdt9QNtO5WBBUhMQVxc-75" value="" style="shape=partialRectangle;connectable=0;fillColor=none;top=0;left=0;bottom=0;right=0;editable=1;overflow=hidden;whiteSpace=wrap;html=1;fontSize=16;fontStyle=1" parent="7Hdt9QNtO5WBBUhMQVxc-74" vertex="1">
          <mxGeometry width="30" height="57" as="geometry">
            <mxRectangle width="30" height="57" as="alternateBounds" />
          </mxGeometry>
        </mxCell>
        <mxCell id="7Hdt9QNtO5WBBUhMQVxc-76" value="category_id" style="shape=partialRectangle;connectable=0;fillColor=none;top=0;left=0;bottom=0;right=0;align=left;spacingLeft=6;overflow=hidden;whiteSpace=wrap;html=1;fontSize=16;fontStyle=1" parent="7Hdt9QNtO5WBBUhMQVxc-74" vertex="1">
          <mxGeometry x="30" width="200" height="57" as="geometry">
            <mxRectangle width="200" height="57" as="alternateBounds" />
          </mxGeometry>
        </mxCell>
        <mxCell id="7Hdt9QNtO5WBBUhMQVxc-77" value="" style="shape=tableRow;horizontal=0;startSize=0;swimlaneHead=0;swimlaneBody=0;fillColor=none;collapsible=0;dropTarget=0;points=[[0,0.5],[1,0.5]];portConstraint=eastwest;top=0;left=0;right=0;bottom=0;fontSize=16;fontStyle=1" parent="7Hdt9QNtO5WBBUhMQVxc-61" vertex="1">
          <mxGeometry y="325" width="230" height="57" as="geometry" />
        </mxCell>
        <mxCell id="7Hdt9QNtO5WBBUhMQVxc-78" value="" style="shape=partialRectangle;connectable=0;fillColor=none;top=0;left=0;bottom=0;right=0;editable=1;overflow=hidden;whiteSpace=wrap;html=1;fontSize=16;fontStyle=1" parent="7Hdt9QNtO5WBBUhMQVxc-77" vertex="1">
          <mxGeometry width="30" height="57" as="geometry">
            <mxRectangle width="30" height="57" as="alternateBounds" />
          </mxGeometry>
        </mxCell>
        <mxCell id="7Hdt9QNtO5WBBUhMQVxc-79" value="category" style="shape=partialRectangle;connectable=0;fillColor=none;top=0;left=0;bottom=0;right=0;align=left;spacingLeft=6;overflow=hidden;whiteSpace=wrap;html=1;fontSize=16;fontStyle=1" parent="7Hdt9QNtO5WBBUhMQVxc-77" vertex="1">
          <mxGeometry x="30" width="200" height="57" as="geometry">
            <mxRectangle width="200" height="57" as="alternateBounds" />
          </mxGeometry>
        </mxCell>
        <mxCell id="7Hdt9QNtO5WBBUhMQVxc-80" value="" style="shape=tableRow;horizontal=0;startSize=0;swimlaneHead=0;swimlaneBody=0;fillColor=none;collapsible=0;dropTarget=0;points=[[0,0.5],[1,0.5]];portConstraint=eastwest;top=0;left=0;right=0;bottom=0;fontSize=16;fontStyle=1" parent="7Hdt9QNtO5WBBUhMQVxc-61" vertex="1">
          <mxGeometry y="382" width="230" height="57" as="geometry" />
        </mxCell>
        <mxCell id="7Hdt9QNtO5WBBUhMQVxc-81" value="" style="shape=partialRectangle;connectable=0;fillColor=none;top=0;left=0;bottom=0;right=0;editable=1;overflow=hidden;whiteSpace=wrap;html=1;fontSize=16;fontStyle=1" parent="7Hdt9QNtO5WBBUhMQVxc-80" vertex="1">
          <mxGeometry width="30" height="57" as="geometry">
            <mxRectangle width="30" height="57" as="alternateBounds" />
          </mxGeometry>
        </mxCell>
        <mxCell id="7Hdt9QNtO5WBBUhMQVxc-82" value="subcategory" style="shape=partialRectangle;connectable=0;fillColor=none;top=0;left=0;bottom=0;right=0;align=left;spacingLeft=6;overflow=hidden;whiteSpace=wrap;html=1;fontSize=16;fontStyle=1" parent="7Hdt9QNtO5WBBUhMQVxc-80" vertex="1">
          <mxGeometry x="30" width="200" height="57" as="geometry">
            <mxRectangle width="200" height="57" as="alternateBounds" />
          </mxGeometry>
        </mxCell>
        <mxCell id="7Hdt9QNtO5WBBUhMQVxc-83" value="" style="shape=tableRow;horizontal=0;startSize=0;swimlaneHead=0;swimlaneBody=0;fillColor=none;collapsible=0;dropTarget=0;points=[[0,0.5],[1,0.5]];portConstraint=eastwest;top=0;left=0;right=0;bottom=0;fontSize=16;fontStyle=1" parent="7Hdt9QNtO5WBBUhMQVxc-61" vertex="1">
          <mxGeometry y="439" width="230" height="57" as="geometry" />
        </mxCell>
        <mxCell id="7Hdt9QNtO5WBBUhMQVxc-84" value="" style="shape=partialRectangle;connectable=0;fillColor=none;top=0;left=0;bottom=0;right=0;editable=1;overflow=hidden;whiteSpace=wrap;html=1;fontSize=16;fontStyle=1" parent="7Hdt9QNtO5WBBUhMQVxc-83" vertex="1">
          <mxGeometry width="30" height="57" as="geometry">
            <mxRectangle width="30" height="57" as="alternateBounds" />
          </mxGeometry>
        </mxCell>
        <mxCell id="7Hdt9QNtO5WBBUhMQVxc-85" value="maintenance" style="shape=partialRectangle;connectable=0;fillColor=none;top=0;left=0;bottom=0;right=0;align=left;spacingLeft=6;overflow=hidden;whiteSpace=wrap;html=1;fontSize=16;fontStyle=1" parent="7Hdt9QNtO5WBBUhMQVxc-83" vertex="1">
          <mxGeometry x="30" width="200" height="57" as="geometry">
            <mxRectangle width="200" height="57" as="alternateBounds" />
          </mxGeometry>
        </mxCell>
        <mxCell id="7Hdt9QNtO5WBBUhMQVxc-86" value="" style="shape=tableRow;horizontal=0;startSize=0;swimlaneHead=0;swimlaneBody=0;fillColor=none;collapsible=0;dropTarget=0;points=[[0,0.5],[1,0.5]];portConstraint=eastwest;top=0;left=0;right=0;bottom=0;fontSize=16;fontStyle=1" parent="7Hdt9QNtO5WBBUhMQVxc-61" vertex="1">
          <mxGeometry y="496" width="230" height="57" as="geometry" />
        </mxCell>
        <mxCell id="7Hdt9QNtO5WBBUhMQVxc-87" value="" style="shape=partialRectangle;connectable=0;fillColor=none;top=0;left=0;bottom=0;right=0;editable=1;overflow=hidden;whiteSpace=wrap;html=1;fontSize=16;fontStyle=1" parent="7Hdt9QNtO5WBBUhMQVxc-86" vertex="1">
          <mxGeometry width="30" height="57" as="geometry">
            <mxRectangle width="30" height="57" as="alternateBounds" />
          </mxGeometry>
        </mxCell>
        <mxCell id="7Hdt9QNtO5WBBUhMQVxc-88" value="cost" style="shape=partialRectangle;connectable=0;fillColor=none;top=0;left=0;bottom=0;right=0;align=left;spacingLeft=6;overflow=hidden;whiteSpace=wrap;html=1;fontSize=16;fontStyle=1" parent="7Hdt9QNtO5WBBUhMQVxc-86" vertex="1">
          <mxGeometry x="30" width="200" height="57" as="geometry">
            <mxRectangle width="200" height="57" as="alternateBounds" />
          </mxGeometry>
        </mxCell>
        <mxCell id="7Hdt9QNtO5WBBUhMQVxc-89" value="" style="shape=tableRow;horizontal=0;startSize=0;swimlaneHead=0;swimlaneBody=0;fillColor=none;collapsible=0;dropTarget=0;points=[[0,0.5],[1,0.5]];portConstraint=eastwest;top=0;left=0;right=0;bottom=0;fontSize=16;fontStyle=1" parent="7Hdt9QNtO5WBBUhMQVxc-61" vertex="1">
          <mxGeometry y="553" width="230" height="57" as="geometry" />
        </mxCell>
        <mxCell id="7Hdt9QNtO5WBBUhMQVxc-90" value="" style="shape=partialRectangle;connectable=0;fillColor=none;top=0;left=0;bottom=0;right=0;editable=1;overflow=hidden;whiteSpace=wrap;html=1;fontSize=16;fontStyle=1" parent="7Hdt9QNtO5WBBUhMQVxc-89" vertex="1">
          <mxGeometry width="30" height="57" as="geometry">
            <mxRectangle width="30" height="57" as="alternateBounds" />
          </mxGeometry>
        </mxCell>
        <mxCell id="7Hdt9QNtO5WBBUhMQVxc-91" value="product_line" style="shape=partialRectangle;connectable=0;fillColor=none;top=0;left=0;bottom=0;right=0;align=left;spacingLeft=6;overflow=hidden;whiteSpace=wrap;html=1;fontSize=16;fontStyle=1" parent="7Hdt9QNtO5WBBUhMQVxc-89" vertex="1">
          <mxGeometry x="30" width="200" height="57" as="geometry">
            <mxRectangle width="200" height="57" as="alternateBounds" />
          </mxGeometry>
        </mxCell>
        <mxCell id="7Hdt9QNtO5WBBUhMQVxc-92" value="" style="shape=tableRow;horizontal=0;startSize=0;swimlaneHead=0;swimlaneBody=0;fillColor=none;collapsible=0;dropTarget=0;points=[[0,0.5],[1,0.5]];portConstraint=eastwest;top=0;left=0;right=0;bottom=0;fontSize=16;fontStyle=1" parent="7Hdt9QNtO5WBBUhMQVxc-61" vertex="1">
          <mxGeometry y="610" width="230" height="57" as="geometry" />
        </mxCell>
        <mxCell id="7Hdt9QNtO5WBBUhMQVxc-93" value="" style="shape=partialRectangle;connectable=0;fillColor=none;top=0;left=0;bottom=0;right=0;editable=1;overflow=hidden;whiteSpace=wrap;html=1;fontSize=16;fontStyle=1" parent="7Hdt9QNtO5WBBUhMQVxc-92" vertex="1">
          <mxGeometry width="30" height="57" as="geometry">
            <mxRectangle width="30" height="57" as="alternateBounds" />
          </mxGeometry>
        </mxCell>
        <mxCell id="7Hdt9QNtO5WBBUhMQVxc-94" value="start_date" style="shape=partialRectangle;connectable=0;fillColor=none;top=0;left=0;bottom=0;right=0;align=left;spacingLeft=6;overflow=hidden;whiteSpace=wrap;html=1;fontSize=16;fontStyle=1" parent="7Hdt9QNtO5WBBUhMQVxc-92" vertex="1">
          <mxGeometry x="30" width="200" height="57" as="geometry">
            <mxRectangle width="200" height="57" as="alternateBounds" />
          </mxGeometry>
        </mxCell>
        <mxCell id="7Hdt9QNtO5WBBUhMQVxc-95" value="gold.fact_sales" style="shape=table;startSize=40;container=1;collapsible=1;childLayout=tableLayout;fixedRows=1;rowLines=0;fontStyle=1;align=center;resizeLast=1;html=1;rounded=1;fillColor=#dae8fc;strokeColor=#6c8ebf;fontSize=16;" parent="1" vertex="1">
          <mxGeometry x="810" y="300" width="230" height="553" as="geometry" />
        </mxCell>
        <mxCell id="7Hdt9QNtO5WBBUhMQVxc-99" value="" style="shape=tableRow;horizontal=0;startSize=0;swimlaneHead=0;swimlaneBody=0;fillColor=none;collapsible=0;dropTarget=0;points=[[0,0.5],[1,0.5]];portConstraint=eastwest;top=0;left=0;right=0;bottom=0;fontSize=16;fontStyle=1" parent="7Hdt9QNtO5WBBUhMQVxc-95" vertex="1">
          <mxGeometry y="40" width="230" height="57" as="geometry" />
        </mxCell>
        <mxCell id="7Hdt9QNtO5WBBUhMQVxc-100" value="" style="shape=partialRectangle;connectable=0;fillColor=none;top=0;left=0;bottom=0;right=0;editable=1;overflow=hidden;whiteSpace=wrap;html=1;fontSize=16;fontStyle=1" parent="7Hdt9QNtO5WBBUhMQVxc-99" vertex="1">
          <mxGeometry width="50" height="57" as="geometry">
            <mxRectangle width="50" height="57" as="alternateBounds" />
          </mxGeometry>
        </mxCell>
        <mxCell id="7Hdt9QNtO5WBBUhMQVxc-101" value="order_number" style="shape=partialRectangle;connectable=0;fillColor=none;top=0;left=0;bottom=0;right=0;align=left;spacingLeft=6;overflow=hidden;whiteSpace=wrap;html=1;fontSize=16;fontStyle=1" parent="7Hdt9QNtO5WBBUhMQVxc-99" vertex="1">
          <mxGeometry x="50" width="180" height="57" as="geometry">
            <mxRectangle width="180" height="57" as="alternateBounds" />
          </mxGeometry>
        </mxCell>
        <mxCell id="7Hdt9QNtO5WBBUhMQVxc-102" value="" style="shape=tableRow;horizontal=0;startSize=0;swimlaneHead=0;swimlaneBody=0;fillColor=none;collapsible=0;dropTarget=0;points=[[0,0.5],[1,0.5]];portConstraint=eastwest;top=0;left=0;right=0;bottom=0;fontSize=16;fontStyle=1" parent="7Hdt9QNtO5WBBUhMQVxc-95" vertex="1">
          <mxGeometry y="97" width="230" height="57" as="geometry" />
        </mxCell>
        <mxCell id="7Hdt9QNtO5WBBUhMQVxc-103" value="FK1" style="shape=partialRectangle;connectable=0;fillColor=none;top=0;left=0;bottom=0;right=0;editable=1;overflow=hidden;whiteSpace=wrap;html=1;fontSize=16;fontStyle=1" parent="7Hdt9QNtO5WBBUhMQVxc-102" vertex="1">
          <mxGeometry width="50" height="57" as="geometry">
            <mxRectangle width="50" height="57" as="alternateBounds" />
          </mxGeometry>
        </mxCell>
        <mxCell id="7Hdt9QNtO5WBBUhMQVxc-104" value="product_key" style="shape=partialRectangle;connectable=0;fillColor=none;top=0;left=0;bottom=0;right=0;align=left;spacingLeft=6;overflow=hidden;whiteSpace=wrap;html=1;fontSize=16;fontStyle=1" parent="7Hdt9QNtO5WBBUhMQVxc-102" vertex="1">
          <mxGeometry x="50" width="180" height="57" as="geometry">
            <mxRectangle width="180" height="57" as="alternateBounds" />
          </mxGeometry>
        </mxCell>
        <mxCell id="7Hdt9QNtO5WBBUhMQVxc-105" value="" style="shape=tableRow;horizontal=0;startSize=0;swimlaneHead=0;swimlaneBody=0;fillColor=none;collapsible=0;dropTarget=0;points=[[0,0.5],[1,0.5]];portConstraint=eastwest;top=0;left=0;right=0;bottom=0;fontSize=16;fontStyle=1" parent="7Hdt9QNtO5WBBUhMQVxc-95" vertex="1">
          <mxGeometry y="154" width="230" height="57" as="geometry" />
        </mxCell>
        <mxCell id="7Hdt9QNtO5WBBUhMQVxc-106" value="FK2" style="shape=partialRectangle;connectable=0;fillColor=none;top=0;left=0;bottom=0;right=0;editable=1;overflow=hidden;whiteSpace=wrap;html=1;fontSize=16;fontStyle=1" parent="7Hdt9QNtO5WBBUhMQVxc-105" vertex="1">
          <mxGeometry width="50" height="57" as="geometry">
            <mxRectangle width="50" height="57" as="alternateBounds" />
          </mxGeometry>
        </mxCell>
        <mxCell id="7Hdt9QNtO5WBBUhMQVxc-107" value="customer_key" style="shape=partialRectangle;connectable=0;fillColor=none;top=0;left=0;bottom=0;right=0;align=left;spacingLeft=6;overflow=hidden;whiteSpace=wrap;html=1;fontSize=16;fontStyle=1" parent="7Hdt9QNtO5WBBUhMQVxc-105" vertex="1">
          <mxGeometry x="50" width="180" height="57" as="geometry">
            <mxRectangle width="180" height="57" as="alternateBounds" />
          </mxGeometry>
        </mxCell>
        <mxCell id="7Hdt9QNtO5WBBUhMQVxc-108" value="" style="shape=tableRow;horizontal=0;startSize=0;swimlaneHead=0;swimlaneBody=0;fillColor=none;collapsible=0;dropTarget=0;points=[[0,0.5],[1,0.5]];portConstraint=eastwest;top=0;left=0;right=0;bottom=0;fontSize=16;fontStyle=1" parent="7Hdt9QNtO5WBBUhMQVxc-95" vertex="1">
          <mxGeometry y="211" width="230" height="57" as="geometry" />
        </mxCell>
        <mxCell id="7Hdt9QNtO5WBBUhMQVxc-109" value="" style="shape=partialRectangle;connectable=0;fillColor=none;top=0;left=0;bottom=0;right=0;editable=1;overflow=hidden;whiteSpace=wrap;html=1;fontSize=16;fontStyle=1" parent="7Hdt9QNtO5WBBUhMQVxc-108" vertex="1">
          <mxGeometry width="50" height="57" as="geometry">
            <mxRectangle width="50" height="57" as="alternateBounds" />
          </mxGeometry>
        </mxCell>
        <mxCell id="7Hdt9QNtO5WBBUhMQVxc-110" value="order_date" style="shape=partialRectangle;connectable=0;fillColor=none;top=0;left=0;bottom=0;right=0;align=left;spacingLeft=6;overflow=hidden;whiteSpace=wrap;html=1;fontSize=16;fontStyle=1" parent="7Hdt9QNtO5WBBUhMQVxc-108" vertex="1">
          <mxGeometry x="50" width="180" height="57" as="geometry">
            <mxRectangle width="180" height="57" as="alternateBounds" />
          </mxGeometry>
        </mxCell>
        <mxCell id="7Hdt9QNtO5WBBUhMQVxc-111" value="" style="shape=tableRow;horizontal=0;startSize=0;swimlaneHead=0;swimlaneBody=0;fillColor=none;collapsible=0;dropTarget=0;points=[[0,0.5],[1,0.5]];portConstraint=eastwest;top=0;left=0;right=0;bottom=0;fontSize=16;fontStyle=1" parent="7Hdt9QNtO5WBBUhMQVxc-95" vertex="1">
          <mxGeometry y="268" width="230" height="57" as="geometry" />
        </mxCell>
        <mxCell id="7Hdt9QNtO5WBBUhMQVxc-112" value="" style="shape=partialRectangle;connectable=0;fillColor=none;top=0;left=0;bottom=0;right=0;editable=1;overflow=hidden;whiteSpace=wrap;html=1;fontSize=16;fontStyle=1" parent="7Hdt9QNtO5WBBUhMQVxc-111" vertex="1">
          <mxGeometry width="50" height="57" as="geometry">
            <mxRectangle width="50" height="57" as="alternateBounds" />
          </mxGeometry>
        </mxCell>
        <mxCell id="7Hdt9QNtO5WBBUhMQVxc-113" value="shipping_date" style="shape=partialRectangle;connectable=0;fillColor=none;top=0;left=0;bottom=0;right=0;align=left;spacingLeft=6;overflow=hidden;whiteSpace=wrap;html=1;fontSize=16;fontStyle=1" parent="7Hdt9QNtO5WBBUhMQVxc-111" vertex="1">
          <mxGeometry x="50" width="180" height="57" as="geometry">
            <mxRectangle width="180" height="57" as="alternateBounds" />
          </mxGeometry>
        </mxCell>
        <mxCell id="7Hdt9QNtO5WBBUhMQVxc-114" value="" style="shape=tableRow;horizontal=0;startSize=0;swimlaneHead=0;swimlaneBody=0;fillColor=none;collapsible=0;dropTarget=0;points=[[0,0.5],[1,0.5]];portConstraint=eastwest;top=0;left=0;right=0;bottom=0;fontSize=16;fontStyle=1" parent="7Hdt9QNtO5WBBUhMQVxc-95" vertex="1">
          <mxGeometry y="325" width="230" height="57" as="geometry" />
        </mxCell>
        <mxCell id="7Hdt9QNtO5WBBUhMQVxc-115" value="" style="shape=partialRectangle;connectable=0;fillColor=none;top=0;left=0;bottom=0;right=0;editable=1;overflow=hidden;whiteSpace=wrap;html=1;fontSize=16;fontStyle=1" parent="7Hdt9QNtO5WBBUhMQVxc-114" vertex="1">
          <mxGeometry width="50" height="57" as="geometry">
            <mxRectangle width="50" height="57" as="alternateBounds" />
          </mxGeometry>
        </mxCell>
        <mxCell id="7Hdt9QNtO5WBBUhMQVxc-116" value="due_date" style="shape=partialRectangle;connectable=0;fillColor=none;top=0;left=0;bottom=0;right=0;align=left;spacingLeft=6;overflow=hidden;whiteSpace=wrap;html=1;fontSize=16;fontStyle=1" parent="7Hdt9QNtO5WBBUhMQVxc-114" vertex="1">
          <mxGeometry x="50" width="180" height="57" as="geometry">
            <mxRectangle width="180" height="57" as="alternateBounds" />
          </mxGeometry>
        </mxCell>
        <mxCell id="7Hdt9QNtO5WBBUhMQVxc-117" value="" style="shape=tableRow;horizontal=0;startSize=0;swimlaneHead=0;swimlaneBody=0;fillColor=none;collapsible=0;dropTarget=0;points=[[0,0.5],[1,0.5]];portConstraint=eastwest;top=0;left=0;right=0;bottom=0;fontSize=16;fontStyle=1" parent="7Hdt9QNtO5WBBUhMQVxc-95" vertex="1">
          <mxGeometry y="382" width="230" height="57" as="geometry" />
        </mxCell>
        <mxCell id="7Hdt9QNtO5WBBUhMQVxc-118" value="" style="shape=partialRectangle;connectable=0;fillColor=none;top=0;left=0;bottom=0;right=0;editable=1;overflow=hidden;whiteSpace=wrap;html=1;fontSize=16;fontStyle=1" parent="7Hdt9QNtO5WBBUhMQVxc-117" vertex="1">
          <mxGeometry width="50" height="57" as="geometry">
            <mxRectangle width="50" height="57" as="alternateBounds" />
          </mxGeometry>
        </mxCell>
        <mxCell id="7Hdt9QNtO5WBBUhMQVxc-119" value="sales_amount" style="shape=partialRectangle;connectable=0;fillColor=none;top=0;left=0;bottom=0;right=0;align=left;spacingLeft=6;overflow=hidden;whiteSpace=wrap;html=1;fontSize=16;fontStyle=1" parent="7Hdt9QNtO5WBBUhMQVxc-117" vertex="1">
          <mxGeometry x="50" width="180" height="57" as="geometry">
            <mxRectangle width="180" height="57" as="alternateBounds" />
          </mxGeometry>
        </mxCell>
        <mxCell id="7Hdt9QNtO5WBBUhMQVxc-120" value="" style="shape=tableRow;horizontal=0;startSize=0;swimlaneHead=0;swimlaneBody=0;fillColor=none;collapsible=0;dropTarget=0;points=[[0,0.5],[1,0.5]];portConstraint=eastwest;top=0;left=0;right=0;bottom=0;fontSize=16;fontStyle=1" parent="7Hdt9QNtO5WBBUhMQVxc-95" vertex="1">
          <mxGeometry y="439" width="230" height="57" as="geometry" />
        </mxCell>
        <mxCell id="7Hdt9QNtO5WBBUhMQVxc-121" value="" style="shape=partialRectangle;connectable=0;fillColor=none;top=0;left=0;bottom=0;right=0;editable=1;overflow=hidden;whiteSpace=wrap;html=1;fontSize=16;fontStyle=1" parent="7Hdt9QNtO5WBBUhMQVxc-120" vertex="1">
          <mxGeometry width="50" height="57" as="geometry">
            <mxRectangle width="50" height="57" as="alternateBounds" />
          </mxGeometry>
        </mxCell>
        <mxCell id="7Hdt9QNtO5WBBUhMQVxc-122" value="quantity" style="shape=partialRectangle;connectable=0;fillColor=none;top=0;left=0;bottom=0;right=0;align=left;spacingLeft=6;overflow=hidden;whiteSpace=wrap;html=1;fontSize=16;fontStyle=1" parent="7Hdt9QNtO5WBBUhMQVxc-120" vertex="1">
          <mxGeometry x="50" width="180" height="57" as="geometry">
            <mxRectangle width="180" height="57" as="alternateBounds" />
          </mxGeometry>
        </mxCell>
        <mxCell id="7Hdt9QNtO5WBBUhMQVxc-123" value="" style="shape=tableRow;horizontal=0;startSize=0;swimlaneHead=0;swimlaneBody=0;fillColor=none;collapsible=0;dropTarget=0;points=[[0,0.5],[1,0.5]];portConstraint=eastwest;top=0;left=0;right=0;bottom=0;fontSize=16;fontStyle=1" parent="7Hdt9QNtO5WBBUhMQVxc-95" vertex="1">
          <mxGeometry y="496" width="230" height="57" as="geometry" />
        </mxCell>
        <mxCell id="7Hdt9QNtO5WBBUhMQVxc-124" value="" style="shape=partialRectangle;connectable=0;fillColor=none;top=0;left=0;bottom=0;right=0;editable=1;overflow=hidden;whiteSpace=wrap;html=1;fontSize=16;fontStyle=1" parent="7Hdt9QNtO5WBBUhMQVxc-123" vertex="1">
          <mxGeometry width="50" height="57" as="geometry">
            <mxRectangle width="50" height="57" as="alternateBounds" />
          </mxGeometry>
        </mxCell>
        <mxCell id="7Hdt9QNtO5WBBUhMQVxc-125" value="price" style="shape=partialRectangle;connectable=0;fillColor=none;top=0;left=0;bottom=0;right=0;align=left;spacingLeft=6;overflow=hidden;whiteSpace=wrap;html=1;fontSize=16;fontStyle=1" parent="7Hdt9QNtO5WBBUhMQVxc-123" vertex="1">
          <mxGeometry x="50" width="180" height="57" as="geometry">
            <mxRectangle width="180" height="57" as="alternateBounds" />
          </mxGeometry>
        </mxCell>
        <mxCell id="7Hdt9QNtO5WBBUhMQVxc-129" value="" style="edgeStyle=entityRelationEdgeStyle;fontSize=12;html=1;endArrow=ERzeroToMany;startArrow=ERmandOne;rounded=0;exitX=1;exitY=0.5;exitDx=0;exitDy=0;entryX=0;entryY=0.5;entryDx=0;entryDy=0;" parent="1" source="7Hdt9QNtO5WBBUhMQVxc-2" target="7Hdt9QNtO5WBBUhMQVxc-105" edge="1">
          <mxGeometry width="100" height="100" relative="1" as="geometry">
            <mxPoint x="690" y="460" as="sourcePoint" />
            <mxPoint x="790" y="360" as="targetPoint" />
          </mxGeometry>
        </mxCell>
        <mxCell id="7Hdt9QNtO5WBBUhMQVxc-130" value="" style="edgeStyle=entityRelationEdgeStyle;fontSize=12;html=1;endArrow=ERzeroToMany;startArrow=ERmandOne;rounded=0;entryX=1;entryY=0.5;entryDx=0;entryDy=0;exitX=0;exitY=0.5;exitDx=0;exitDy=0;" parent="1" source="7Hdt9QNtO5WBBUhMQVxc-62" target="7Hdt9QNtO5WBBUhMQVxc-102" edge="1">
          <mxGeometry width="100" height="100" relative="1" as="geometry">
            <mxPoint x="1080" y="490" as="sourcePoint" />
            <mxPoint x="1180" y="390" as="targetPoint" />
          </mxGeometry>
        </mxCell>
      </root>
    </mxGraphModel>
  </diagram>
</mxfile>
